<svg width="375" height="408" viewBox="0 0 375 408" fill="none" xmlns="http://www.w3.org/2000/svg">
<path d="M206.263 0L245.039 74.8093L167.988 75.1344L206.263 0Z" fill="url(#pgradient)"/>
<path d="M206.711 154.942L168.04 80.0643L245.091 79.8754L206.711 154.942Z" fill="url(#gradient)"/>
<path d="M206.711 154.942L168.04 80.0643L245.091 79.8754L206.711 154.942Z" fill="url(#gradient)"/>
<path d="M250.203 81.785L288.979 156.594L211.928 156.919L250.203 81.785Z" fill="url(#gradient)"/>
<path d="M251.54 236.723L212.869 161.845L289.92 161.657L251.54 236.723Z" fill="url(#gradient)"/>
<path d="M293.186 164.574L331.962 239.383L254.911 239.708L293.186 164.574Z" fill="url(#gradient)"/>
<path d="M294.523 319.512L255.852 244.634L332.903 244.445L294.523 319.512Z" fill="url(#gradient)"/>
<path d="M163.901 82.1491L202.677 156.958L125.627 157.284L163.901 82.1491Z" fill="url(#gradient)"/>
<path d="M164.349 237.091L125.678 162.213L202.729 162.025L164.349 237.091Z" fill="url(#gradient)"/>
<path d="M122.366 166.294L161.142 241.103L84.0915 241.429L122.366 166.294Z" fill="url(#gradient)"/>
<path d="M80.7641 251.439L119.54 326.248L42.4895 326.573L80.7641 251.439Z" fill="url(#gradient)"/>
<path d="M206.494 331.457L245.27 406.266L168.219 406.591L206.494 331.457Z" fill="url(#gradient)"/>
<path d="M123.707 322.232L85.036 247.354L162.087 247.165L123.707 322.232Z" fill="url(#gradient)"/>
<path d="M336.172 248.362L374.948 323.171L297.898 323.496L336.172 248.362Z" fill="url(#gradient)"/>
<path d="M38.2746 332.866L77.0505 407.675L0 408L38.2746 332.866Z" fill="url(#gradient)"/>
<path d="M336.62 403.304L297.949 328.426L375 328.237L336.62 403.304Z" fill="url(#gradient)"/>
<path d="M82.1722 406.534L43.5012 331.656L120.552 331.468L82.1722 406.534Z" fill="url(#gradient)"/>
<path d="M82.1722 406.534L43.5012 331.656L120.552 331.468L82.1722 406.534Z" fill="url(#gradient)"/>
<defs>
<linearGradient id="gradient" x1="207.765" y1="-10.6839" x2="206.08" y2="437.15" gradientUnits="userSpaceOnUse">
<stop stop-color="#22c1c3"/>
<stop offset="1" stop-color="#566FA1"/>
</defs>
</svg>
